<svg xmlns="http://www.w3.org/2000/svg" viewBox="0 0 900 600" fill="none">
  <defs>
    <radialGradient id="glow-violet" cx="50%" cy="50%" r="60%">
      <stop offset="0%" stop-color="#8B5CF6" stop-opacity="0.25"/>
      <stop offset="100%" stop-color="#8B5CF6" stop-opacity="0"/>
    </radialGradient>
  </defs>
  <rect width="900" height="600" fill="#0A101C"/>
  <circle cx="450" cy="280" r="280" fill="url(#glow-violet)"/>
  <!-- Grid -->
  <g stroke="#8B5CF6" stroke-opacity="0.06" stroke-width="1">
    <line x1="0" y1="100" x2="900" y2="100"/><line x1="0" y1="200" x2="900" y2="200"/>
    <line x1="0" y1="300" x2="900" y2="300"/><line x1="0" y1="400" x2="900" y2="400"/>
    <line x1="150" y1="0" x2="150" y2="600"/><line x1="300" y1="0" x2="300" y2="600"/>
    <line x1="450" y1="0" x2="450" y2="600"/><line x1="600" y1="0" x2="600" y2="600"/>
    <line x1="750" y1="0" x2="750" y2="600"/>
  </g>
  <!-- Options chain visual -->
  <rect x="200" y="130" width="500" height="300" rx="12" stroke="#8B5CF6" stroke-opacity="0.3" fill="#0A101C" fill-opacity="0.8"/>
  <!-- Header row -->
  <rect x="200" y="130" width="500" height="36" rx="12" fill="#8B5CF6" fill-opacity="0.1"/>
  <text x="280" y="153" fill="#8B5CF6" font-family="monospace" font-size="11" opacity="0.7">CALLS</text>
  <text x="440" y="153" fill="#94A3B8" font-family="monospace" font-size="11" opacity="0.5">STRIKE</text>
  <text x="590" y="153" fill="#A78BFA" font-family="monospace" font-size="11" opacity="0.7">PUTS</text>
  <!-- Strike rows -->
  <g font-family="monospace" font-size="11">
    <rect x="210" y="175" width="120" height="24" rx="4" fill="#8B5CF6" fill-opacity="0.15"/>
    <text x="230" y="191" fill="#C4B5FD" opacity="0.8">12.40</text><text x="310" y="191" fill="#34D399" opacity="0.6">+2.1</text>
    <text x="445" y="191" fill="#E2E8F0" opacity="0.7">100</text>
    <rect x="520" y="175" width="80" height="24" rx="4" fill="#8B5CF6" fill-opacity="0.08"/>
    <text x="535" y="191" fill="#A78BFA" opacity="0.6">3.20</text>

    <rect x="210" y="208" width="160" height="24" rx="4" fill="#8B5CF6" fill-opacity="0.25"/>
    <text x="230" y="224" fill="#C4B5FD" opacity="0.9">18.60</text><text x="310" y="224" fill="#34D399" opacity="0.8">+4.8</text>
    <text x="445" y="224" fill="#FFFFFF" opacity="0.9" font-weight="bold">105</text>
    <rect x="520" y="208" width="60" height="24" rx="4" fill="#8B5CF6" fill-opacity="0.06"/>
    <text x="535" y="224" fill="#A78BFA" opacity="0.5">1.80</text>

    <rect x="210" y="241" width="100" height="24" rx="4" fill="#8B5CF6" fill-opacity="0.12"/>
    <text x="230" y="257" fill="#C4B5FD" opacity="0.7">8.20</text><text x="310" y="257" fill="#34D399" opacity="0.5">+1.2</text>
    <text x="445" y="257" fill="#E2E8F0" opacity="0.7">110</text>
    <rect x="520" y="241" width="110" height="24" rx="4" fill="#8B5CF6" fill-opacity="0.1"/>
    <text x="535" y="257" fill="#A78BFA" opacity="0.7">5.40</text>

    <rect x="210" y="274" width="70" height="24" rx="4" fill="#8B5CF6" fill-opacity="0.08"/>
    <text x="230" y="290" fill="#C4B5FD" opacity="0.5">4.10</text>
    <text x="445" y="290" fill="#E2E8F0" opacity="0.7">115</text>
    <rect x="520" y="274" width="140" height="24" rx="4" fill="#8B5CF6" fill-opacity="0.18"/>
    <text x="535" y="290" fill="#A78BFA" opacity="0.8">9.60</text>
  </g>
  <!-- Confluence highlight -->
  <rect x="195" y="203" width="510" height="34" rx="6" stroke="#8B5CF6" stroke-opacity="0.6" stroke-width="2" fill="none"/>
  <circle cx="710" cy="220" r="14" fill="#8B5CF6" fill-opacity="0.2" stroke="#8B5CF6" stroke-opacity="0.5"/>
  <text x="710" y="224" text-anchor="middle" fill="#C4B5FD" font-family="monospace" font-size="10" font-weight="bold">★</text>
  <!-- Greeks overlay -->
  <g transform="translate(250, 340)">
    <text x="0" y="0" fill="#A78BFA" font-family="monospace" font-size="10" opacity="0.5">Δ 0.68</text>
    <text x="80" y="0" fill="#A78BFA" font-family="monospace" font-size="10" opacity="0.5">Γ 0.04</text>
    <text x="160" y="0" fill="#A78BFA" font-family="monospace" font-size="10" opacity="0.5">θ -0.12</text>
    <text x="240" y="0" fill="#A78BFA" font-family="monospace" font-size="10" opacity="0.5">V 32.4%</text>
  </g>
  <text x="450" y="510" text-anchor="middle" fill="#8B5CF6" font-family="monospace" font-size="18" font-weight="bold" opacity="0.6">OPTIONS CONFLUENCE</text>
  <text x="450" y="535" text-anchor="middle" fill="#94A3B8" font-family="monospace" font-size="12" opacity="0.5">Strike · Expiry · Flow · Greeks</text>
</svg>