<svg xmlns="http://www.w3.org/2000/svg" viewBox="0 0 2560 1600" fill="none">
  <rect width="2560" height="1600" fill="#020617"/>
  <!-- Grid -->
  <g stroke="#10B981" stroke-opacity="0.03" stroke-width="1">
    <!-- Vertical lines every 80px -->
    <line x1="80" y1="0" x2="80" y2="1600"/><line x1="160" y1="0" x2="160" y2="1600"/>
    <line x1="240" y1="0" x2="240" y2="1600"/><line x1="320" y1="0" x2="320" y2="1600"/>
    <line x1="400" y1="0" x2="400" y2="1600"/><line x1="480" y1="0" x2="480" y2="1600"/>
    <line x1="560" y1="0" x2="560" y2="1600"/><line x1="640" y1="0" x2="640" y2="1600"/>
    <line x1="720" y1="0" x2="720" y2="1600"/><line x1="800" y1="0" x2="800" y2="1600"/>
    <line x1="880" y1="0" x2="880" y2="1600"/><line x1="960" y1="0" x2="960" y2="1600"/>
    <line x1="1040" y1="0" x2="1040" y2="1600"/><line x1="1120" y1="0" x2="1120" y2="1600"/>
    <line x1="1200" y1="0" x2="1200" y2="1600"/><line x1="1280" y1="0" x2="1280" y2="1600"/>
    <line x1="1360" y1="0" x2="1360" y2="1600"/><line x1="1440" y1="0" x2="1440" y2="1600"/>
    <line x1="1520" y1="0" x2="1520" y2="1600"/><line x1="1600" y1="0" x2="1600" y2="1600"/>
    <line x1="1680" y1="0" x2="1680" y2="1600"/><line x1="1760" y1="0" x2="1760" y2="1600"/>
    <line x1="1840" y1="0" x2="1840" y2="1600"/><line x1="1920" y1="0" x2="1920" y2="1600"/>
    <line x1="2000" y1="0" x2="2000" y2="1600"/><line x1="2080" y1="0" x2="2080" y2="1600"/>
    <line x1="2160" y1="0" x2="2160" y2="1600"/><line x1="2240" y1="0" x2="2240" y2="1600"/>
    <line x1="2320" y1="0" x2="2320" y2="1600"/><line x1="2400" y1="0" x2="2400" y2="1600"/>
    <line x1="2480" y1="0" x2="2480" y2="1600"/>
    <!-- Horizontal lines every 80px -->
    <line x1="0" y1="80" x2="2560" y2="80"/><line x1="0" y1="160" x2="2560" y2="160"/>
    <line x1="0" y1="240" x2="2560" y2="240"/><line x1="0" y1="320" x2="2560" y2="320"/>
    <line x1="0" y1="400" x2="2560" y2="400"/><line x1="0" y1="480" x2="2560" y2="480"/>
    <line x1="0" y1="560" x2="2560" y2="560"/><line x1="0" y1="640" x2="2560" y2="640"/>
    <line x1="0" y1="720" x2="2560" y2="720"/><line x1="0" y1="800" x2="2560" y2="800"/>
    <line x1="0" y1="880" x2="2560" y2="880"/><line x1="0" y1="960" x2="2560" y2="960"/>
    <line x1="0" y1="1040" x2="2560" y2="1040"/><line x1="0" y1="1120" x2="2560" y2="1120"/>
    <line x1="0" y1="1200" x2="2560" y2="1200"/><line x1="0" y1="1280" x2="2560" y2="1280"/>
    <line x1="0" y1="1360" x2="2560" y2="1360"/><line x1="0" y1="1440" x2="2560" y2="1440"/>
    <line x1="0" y1="1520" x2="2560" y2="1520"/>
  </g>
  <!-- Floating data particles -->
  <circle cx="200" cy="300" r="2" fill="#10B981" opacity="0.3"/>
  <circle cx="800" cy="500" r="1.5" fill="#06B6D4" opacity="0.2"/>
  <circle cx="1400" cy="200" r="2" fill="#8B5CF6" opacity="0.25"/>
  <circle cx="1900" cy="700" r="1.5" fill="#10B981" opacity="0.2"/>
  <circle cx="500" cy="1000" r="2" fill="#F59E0B" opacity="0.15"/>
  <circle cx="1200" cy="800" r="1.5" fill="#06B6D4" opacity="0.2"/>
  <circle cx="2200" cy="400" r="2" fill="#10B981" opacity="0.25"/>
  <circle cx="700" cy="1300" r="1.5" fill="#8B5CF6" opacity="0.15"/>
  <circle cx="1600" cy="1100" r="2" fill="#F59E0B" opacity="0.2"/>
  <circle cx="2100" cy="1200" r="1.5" fill="#10B981" opacity="0.2"/>
</svg>