<svg xmlns="http://www.w3.org/2000/svg" viewBox="0 0 512 512" fill="none">
  <defs><radialGradient id="g" cx="50%" cy="50%" r="50%"><stop offset="0%" stop-color="#EF4444" stop-opacity="0.2"/><stop offset="100%" stop-color="#EF4444" stop-opacity="0"/></radialGradient></defs>
  <rect width="512" height="512" rx="32" fill="#0A101C"/><circle cx="256" cy="240" r="180" fill="url(#g)"/>
  <!-- Brain outline -->
  <ellipse cx="230" cy="210" rx="70" ry="80" stroke="#EF4444" stroke-width="2.5" fill="#EF4444" fill-opacity="0.06"/>
  <ellipse cx="282" cy="210" rx="70" ry="80" stroke="#EF4444" stroke-width="2.5" fill="#EF4444" fill-opacity="0.06"/>
  <!-- Brain fold -->
  <path d="M256,130 C256,180 240,200 256,240 C272,200 256,180 256,130" stroke="#EF4444" stroke-width="1.5" fill="none" opacity="0.3"/>
  <!-- Neural nodes -->
  <circle cx="210" cy="190" r="6" fill="#EF4444" opacity="0.6"/>
  <circle cx="300" cy="195" r="6" fill="#EF4444" opacity="0.6"/>
  <circle cx="240" cy="240" r="6" fill="#EF4444" opacity="0.6"/>
  <circle cx="275" cy="235" r="6" fill="#EF4444" opacity="0.6"/>
  <circle cx="256" cy="180" r="6" fill="#EF4444" opacity="0.6"/>
  <!-- Neural connections -->
  <line x1="210" y1="190" x2="256" y2="180" stroke="#EF4444" stroke-width="1" opacity="0.4"/>
  <line x1="256" y1="180" x2="300" y2="195" stroke="#EF4444" stroke-width="1" opacity="0.4"/>
  <line x1="240" y1="240" x2="256" y2="180" stroke="#EF4444" stroke-width="1" opacity="0.4"/>
  <line x1="275" y1="235" x2="300" y2="195" stroke="#EF4444" stroke-width="1" opacity="0.4"/>
  <line x1="210" y1="190" x2="240" y2="240" stroke="#EF4444" stroke-width="1" opacity="0.4"/>
  <line x1="275" y1="235" x2="256" y2="180" stroke="#EF4444" stroke-width="1" opacity="0.4"/>
  <!-- Radiating signals -->
  <circle cx="256" cy="210" r="100" stroke="#EF4444" stroke-width="1" fill="none" opacity="0.1"/>
  <circle cx="256" cy="210" r="120" stroke="#EF4444" stroke-width="0.5" fill="none" opacity="0.07"/>
  <text x="256" y="440" text-anchor="middle" fill="#EF4444" font-family="monospace" font-size="16" font-weight="bold" opacity="0.5">AI ANALYST</text>
</svg>