<svg xmlns="http://www.w3.org/2000/svg" viewBox="0 0 512 512" fill="none">
  <defs><radialGradient id="g" cx="50%" cy="50%" r="50%"><stop offset="0%" stop-color="#10B981" stop-opacity="0.2"/><stop offset="100%" stop-color="#10B981" stop-opacity="0"/></radialGradient></defs>
  <rect width="512" height="512" rx="32" fill="#0A101C"/><circle cx="256" cy="240" r="180" fill="url(#g)"/>
  <!-- Clock circle -->
  <circle cx="240" cy="220" r="90" stroke="#10B981" stroke-width="2.5" fill="#10B981" fill-opacity="0.06"/>
  <!-- Clock hands -->
  <line x1="240" y1="220" x2="240" y2="160" stroke="#10B981" stroke-width="3" stroke-linecap="round" opacity="0.6"/>
  <line x1="240" y1="220" x2="290" y2="240" stroke="#10B981" stroke-width="2.5" stroke-linecap="round" opacity="0.5"/>
  <!-- Center dot -->
  <circle cx="240" cy="220" r="5" fill="#10B981" opacity="0.7"/>
  <!-- Clock ticks -->
  <line x1="240" y1="134" x2="240" y2="144" stroke="#10B981" stroke-width="2" opacity="0.4"/>
  <line x1="240" y1="296" x2="240" y2="306" stroke="#10B981" stroke-width="2" opacity="0.4"/>
  <line x1="154" y1="220" x2="164" y2="220" stroke="#10B981" stroke-width="2" opacity="0.4"/>
  <line x1="316" y1="220" x2="326" y2="220" stroke="#10B981" stroke-width="2" opacity="0.4"/>
  <!-- Chart overlay -->
  <polyline points="200,280 230,260 260,270 290,230 320,240 350,190 380,200" stroke="#10B981" stroke-width="2" fill="none" opacity="0.5"/>
  <polygon points="200,280 230,260 260,270 290,230 320,240 350,190 380,200 380,310 200,310" fill="#10B981" fill-opacity="0.06"/>
  <circle cx="380" cy="200" r="4" fill="#10B981" opacity="0.7"/>
  <text x="256" y="440" text-anchor="middle" fill="#10B981" font-family="monospace" font-size="16" font-weight="bold" opacity="0.5">BACKTEST</text>
</svg>