<svg xmlns="http://www.w3.org/2000/svg" viewBox="0 0 512 512" fill="none">
  <defs><radialGradient id="g" cx="50%" cy="50%" r="50%"><stop offset="0%" stop-color="#EF4444" stop-opacity="0.2"/><stop offset="100%" stop-color="#EF4444" stop-opacity="0"/></radialGradient></defs>
  <rect width="512" height="512" rx="32" fill="#0A101C"/><circle cx="256" cy="240" r="180" fill="url(#g)"/>
  <!-- Grid of colored squares -->
  <rect x="130" y="120" width="56" height="56" rx="4" fill="#22C55E" opacity="0.5"/>
  <rect x="194" y="120" width="56" height="56" rx="4" fill="#EF4444" opacity="0.6"/>
  <rect x="258" y="120" width="56" height="56" rx="4" fill="#22C55E" opacity="0.35"/>
  <rect x="322" y="120" width="56" height="56" rx="4" fill="#EF4444" opacity="0.4"/>
  <rect x="130" y="184" width="56" height="56" rx="4" fill="#EF4444" opacity="0.45"/>
  <rect x="194" y="184" width="56" height="56" rx="4" fill="#22C55E" opacity="0.6"/>
  <rect x="258" y="184" width="56" height="56" rx="4" fill="#EF4444" opacity="0.7"/>
  <rect x="322" y="184" width="56" height="56" rx="4" fill="#22C55E" opacity="0.3"/>
  <rect x="130" y="248" width="56" height="56" rx="4" fill="#22C55E" opacity="0.4"/>
  <rect x="194" y="248" width="56" height="56" rx="4" fill="#EF4444" opacity="0.35"/>
  <rect x="258" y="248" width="56" height="56" rx="4" fill="#22C55E" opacity="0.55"/>
  <rect x="322" y="248" width="56" height="56" rx="4" fill="#EF4444" opacity="0.5"/>
  <text x="256" y="440" text-anchor="middle" fill="#EF4444" font-family="monospace" font-size="16" font-weight="bold" opacity="0.5">SECTOR HEATMAP</text>
</svg>